<svg width="322" height="322" viewBox="0 0 322 322" fill="none" xmlns="http://www.w3.org/2000/svg">
<circle cx="161" cy="161" r="147" stroke="#222222" stroke-width="1.5"/>
<circle cx="161" cy="161" r="153" stroke="#222222" stroke-width="1.5"/>
<path d="M49.1249 227.467L47.6347 224.832L57.8695 219.045L55.9611 215.67L58.1542 214.43L63.4611 223.814L61.268 225.055L59.3596 221.68L49.1249 227.467Z" fill="black"/>
<path d="M66.9001 240.605C66.0119 241.254 65.1219 241.736 64.23 242.049C63.3433 242.359 62.472 242.48 61.616 242.412C60.7638 242.349 59.9441 242.078 59.157 241.597C58.375 241.112 57.6402 240.399 56.9524 239.458C56.2646 238.518 55.8082 237.601 55.5834 236.709C55.3638 235.813 55.3516 234.947 55.5467 234.111C55.7456 233.28 56.1297 232.487 56.6988 231.732C57.2679 230.977 57.9992 230.273 58.8926 229.62C60.0856 228.748 61.2658 228.183 62.4331 227.927C63.6094 227.671 64.7398 227.772 65.8241 228.23C66.9085 228.687 67.9099 229.544 68.8282 230.8C69.7428 232.05 70.2496 233.257 70.3487 234.418C70.4517 235.585 70.2013 236.687 69.5975 237.726C68.9975 238.769 68.0983 239.729 66.9001 240.605ZM60.7501 232.194C59.946 232.781 59.3253 233.389 58.8879 234.015C58.4597 234.642 58.2455 235.287 58.2452 235.948C58.2502 236.606 58.5025 237.277 59.002 237.96C59.5092 238.654 60.0754 239.103 60.7006 239.307C61.331 239.507 62.0064 239.493 62.7266 239.265C63.456 239.038 64.2228 238.631 65.0268 238.043C66.2356 237.159 67.0216 236.238 67.3849 235.278C67.7482 234.319 67.5513 233.322 66.7943 232.287C66.291 231.598 65.7222 231.151 65.0879 230.946C64.4627 230.741 63.7835 230.75 63.0503 230.971C62.3262 231.194 61.5595 231.602 60.7501 232.194Z" fill="black"/>
<path d="M75.8159 259.499L69.8291 253.863L79.6159 243.467L85.6027 249.104L83.9024 250.91L80.1198 247.349L77.9709 249.631L81.4905 252.945L79.7902 254.751L76.2706 251.437L73.7469 254.118L77.5296 257.679L75.8159 259.499Z" fill="black"/>
<path d="M82.3498 264.65L79.9858 262.838L88.6711 251.507L95.1663 256.485L93.6573 258.454L89.5261 255.287L87.2865 258.209L91.1309 261.156L89.6279 263.117L85.7835 260.17L82.3498 264.65Z" fill="black"/>
<path d="M92.892 271.865L90.3617 270.294L97.8935 258.165L104.846 262.482L103.537 264.589L99.1153 261.843L97.1731 264.971L101.288 267.526L99.9846 269.625L95.8697 267.07L92.892 271.865Z" fill="black"/>
<path d="M108.822 280.321L101.434 276.712L107.7 263.883L115.089 267.492L114 269.721L109.332 267.441L107.956 270.257L112.3 272.379L111.211 274.608L106.867 272.486L105.251 275.794L109.92 278.075L108.822 280.321Z" fill="black"/>
<path d="M123.599 273.116C122.527 272.729 121.552 272.833 120.672 273.429C119.794 274.018 119.095 275.032 118.575 276.471C117.492 279.465 118.074 281.368 120.321 282.181C121.264 282.521 122.491 282.699 124.003 282.712L123.139 285.1C121.871 285.16 120.558 284.945 119.198 284.454C117.245 283.748 115.965 282.617 115.358 281.061C114.752 279.499 114.85 277.61 115.652 275.393C116.156 273.998 116.852 272.868 117.739 272.005C118.628 271.135 119.647 270.594 120.798 270.38C121.957 270.162 123.176 270.284 124.455 270.747C125.759 271.218 126.956 272.007 128.044 273.114L126.289 275.096C125.873 274.676 125.443 274.285 124.999 273.924C124.555 273.562 124.089 273.293 123.599 273.116Z" fill="black"/>
<path d="M132.825 288.06L129.884 287.342L132.673 275.92L128.906 275L129.504 272.553L139.977 275.11L139.38 277.558L135.614 276.638L132.825 288.06Z" fill="black"/>
<path d="M140.659 289.521L142.799 275.405L145.792 275.858L143.652 289.975L140.659 289.521Z" fill="black"/>
<path d="M159.234 276.92L162.286 277.089L156.651 291.077L153.355 290.894L149.308 276.371L152.36 276.54L154.572 285.171C154.694 285.68 154.814 286.274 154.933 286.952C155.059 287.624 155.134 288.091 155.159 288.353C155.263 287.759 155.565 286.726 156.064 285.254L159.234 276.92Z" fill="black"/>
<path d="M173.65 290.617L165.44 291.072L164.651 276.816L172.861 276.362L172.998 278.838L167.811 279.125L167.984 282.255L172.811 281.988L172.948 284.465L168.121 284.732L168.324 288.408L173.512 288.121L173.65 290.617Z" fill="black"/>
<path d="M190.817 275.368C189.708 275.628 188.947 276.247 188.535 277.227C188.121 278.2 188.089 279.431 188.438 280.921C189.164 284.02 190.691 285.297 193.017 284.752C193.993 284.523 195.118 284.002 196.392 283.188L196.971 285.661C195.942 286.403 194.724 286.94 193.316 287.27C191.294 287.744 189.604 287.494 188.246 286.522C186.887 285.544 185.938 283.907 185.4 281.613C185.062 280.167 185.028 278.841 185.3 277.634C185.571 276.42 186.13 275.41 186.977 274.603C187.829 273.788 188.917 273.225 190.242 272.915C191.592 272.598 193.025 272.607 194.541 272.94L194.152 275.559C193.574 275.433 193.001 275.341 192.432 275.28C191.862 275.22 191.324 275.249 190.817 275.368Z" fill="black"/>
<path d="M212.589 280.683L209.754 281.717L207.641 275.929L202.33 277.868L204.443 283.656L201.599 284.694L196.703 271.282L199.547 270.244L201.466 275.501L206.777 273.562L204.859 268.305L207.693 267.271L212.589 280.683Z" fill="black"/>
<path d="M224.897 274.464L222.428 271.91L217.794 274.28L218.42 277.777L215.516 279.263L213.474 264.205L216.769 262.519L227.801 272.979L224.897 274.464ZM220.628 269.979C218.374 267.673 217.1 266.368 216.806 266.065C216.517 265.759 216.297 265.514 216.144 265.329C216.332 266.169 216.723 268.283 217.316 271.673L220.628 269.979Z" fill="black"/>
<path d="M228.504 262.832L229.316 262.289C230.111 261.757 230.61 261.232 230.811 260.713C231.013 260.195 230.923 259.651 230.543 259.083C230.167 258.52 229.704 258.25 229.155 258.272C228.612 258.291 227.934 258.572 227.122 259.115L226.359 259.625L228.504 262.832ZM229.872 264.877L232.918 269.431L230.401 271.114L222.464 259.247L225.922 256.934C227.535 255.855 228.925 255.352 230.094 255.424C231.258 255.491 232.241 256.123 233.041 257.319C233.507 258.017 233.732 258.768 233.713 259.571C233.691 260.369 233.431 261.158 232.934 261.937C236.504 263.411 238.82 264.356 239.882 264.773L237.09 266.641L231.211 263.982L229.872 264.877Z" fill="black"/>
<path d="M242.603 262.344L233.574 251.284L235.919 249.369L244.948 260.429L242.603 262.344Z" fill="black"/>
<path d="M253.872 252.162L251.707 254.277L243.491 245.866L240.717 248.575L238.957 246.773L246.669 239.239L248.43 241.042L245.656 243.751L253.872 252.162Z" fill="black"/>
<path d="M259.257 246.287L248.412 237.002L250.381 234.702L261.226 243.988L259.257 246.287Z" fill="black"/>
<path d="M270.12 232.059L265.349 238.756L253.721 230.471L258.492 223.774L260.513 225.214L257.498 229.445L260.051 231.264L262.856 227.327L264.876 228.766L262.071 232.703L265.07 234.84L268.084 230.608L270.12 232.059Z" fill="black"/>
<path d="M273.577 218.172C274.699 218.807 275.354 219.712 275.541 220.888C275.732 222.058 275.421 223.362 274.607 224.802C273.857 226.128 272.944 227.16 271.869 227.898L269.42 226.514C270.269 225.887 270.933 225.327 271.413 224.836C271.896 224.338 272.274 223.849 272.546 223.367C272.873 222.789 273.012 222.285 272.964 221.854C272.92 221.417 272.679 221.075 272.243 220.829C271.999 220.691 271.745 220.637 271.481 220.667C271.212 220.694 270.914 220.791 270.587 220.958C270.264 221.12 269.681 221.497 268.837 222.089C268.051 222.647 267.386 223.022 266.843 223.216C266.299 223.41 265.745 223.497 265.181 223.477C264.616 223.457 264.042 223.282 263.458 222.951C262.359 222.33 261.705 221.47 261.495 220.372C261.289 219.268 261.558 218.059 262.301 216.744C262.667 216.098 263.091 215.526 263.574 215.029C264.06 214.526 264.623 214.033 265.263 213.55L266.831 215.558C266.184 216.068 265.684 216.51 265.329 216.885C264.978 217.255 264.684 217.65 264.447 218.069C264.165 218.568 264.064 219.016 264.146 219.414C264.228 219.812 264.456 220.116 264.83 220.328C265.062 220.459 265.297 220.521 265.533 220.512C265.764 220.501 266.027 220.425 266.323 220.286C266.616 220.138 267.221 219.743 268.137 219.102C269.349 218.254 270.358 217.773 271.163 217.66C271.961 217.543 272.766 217.714 273.577 218.172Z" fill="black"/>
<path d="M31.2491 146.649L45.3893 150.784L45.2677 154.229L37.7041 155.896C37.5596 155.93 37.3398 155.975 37.0447 156.029C36.7496 156.084 36.4284 156.141 36.0811 156.201C35.7272 156.26 35.3963 156.313 35.0884 156.361C34.7743 156.402 34.5258 156.429 34.3429 156.442C34.5244 156.468 34.767 156.516 35.0708 156.585C35.3747 156.648 35.6979 156.721 36.0402 156.805C36.3827 156.882 36.7025 156.959 36.9995 157.034C37.2965 157.11 37.5224 157.17 37.6771 157.215L45.0851 159.401L44.9638 162.837L30.5668 165.973L30.6719 162.996L38.5244 161.446C38.7605 161.403 39.0423 161.354 39.3699 161.3C39.6978 161.24 40.0418 161.184 40.4019 161.132C40.7558 161.072 41.0996 161.023 41.4332 160.982C41.7606 160.935 42.0451 160.903 42.2868 160.885C42.0407 160.844 41.7559 160.792 41.4324 160.728C41.1025 160.664 40.7693 160.597 40.4331 160.527C40.0905 160.45 39.774 160.373 39.4835 160.298C39.193 160.222 38.9576 160.156 38.7773 160.097L30.8576 157.736L30.9586 154.876L39.025 153.08C39.2023 153.041 39.4416 152.997 39.743 152.949C40.0381 152.894 40.3592 152.84 40.7063 152.788C41.0535 152.735 41.3939 152.688 41.7275 152.648C42.0549 152.601 42.3394 152.568 42.5811 152.551C42.2574 152.494 41.8659 152.418 41.4067 152.324C40.9412 152.223 40.4791 152.118 40.0204 152.011C39.5619 151.897 39.1778 151.799 38.868 151.716L31.144 149.626L31.2491 146.649Z" fill="black"/>
<path d="M47.3946 137.212L46.0882 145.331L31.9922 143.062L33.2986 134.944L35.7475 135.338L34.9221 140.468L38.017 140.966L38.7851 136.193L41.234 136.587L40.466 141.36L44.1009 141.945L44.9263 136.815L47.3946 137.212Z" fill="black"/>
<path d="M47.2624 112.991C48.7816 113.519 49.9502 114.252 50.7684 115.19C51.5825 116.121 52.0568 117.226 52.1913 118.506C52.3196 119.784 52.1148 121.199 51.5768 122.748L50.251 126.568L36.7631 121.886L38.233 117.651C38.7241 116.237 39.4022 115.097 40.2673 114.233C41.1263 113.366 42.1471 112.818 43.3297 112.588C44.5062 112.355 45.8171 112.49 47.2624 112.991ZM46.305 115.988C45.3087 115.642 44.4394 115.505 43.6973 115.579C42.9512 115.643 42.3251 115.909 41.819 116.374C41.3151 116.833 40.9179 117.481 40.6276 118.317L40.0992 119.839L48.882 122.888L49.3079 121.661C49.7925 120.265 49.7802 119.099 49.2708 118.165C48.7636 117.223 47.775 116.498 46.305 115.988Z" fill="black"/>
<path d="M54.3785 98.9044C55.3666 99.3883 56.2069 99.9521 56.8993 100.596C57.5859 101.236 58.0984 101.951 58.4369 102.741C58.7781 103.524 58.9191 104.376 58.8597 105.296C58.7945 106.214 58.5056 107.196 57.993 108.243C57.4804 109.289 56.8817 110.12 56.1967 110.734C55.5058 111.345 54.7449 111.759 53.914 111.976C53.0859 112.186 52.2054 112.215 51.2724 112.063C50.3394 111.91 49.3759 111.591 48.3819 111.104C47.0547 110.454 46.0059 109.672 45.2355 108.758C44.4622 107.836 44.0255 106.788 43.9256 105.616C43.8257 104.443 44.1179 103.158 44.8023 101.761C45.4838 100.369 46.3155 99.3595 47.2974 98.7312C48.2821 98.0971 49.3745 97.8057 50.5745 97.8569C51.7774 97.9024 53.0454 98.2515 54.3785 98.9044ZM49.7954 108.262C50.69 108.7 51.5162 108.967 52.274 109.063C53.0288 109.15 53.6991 109.04 54.2847 108.732C54.8645 108.421 55.3405 107.886 55.7127 107.126C56.0907 106.354 56.2246 105.644 56.1145 104.996C55.9985 104.345 55.6718 103.753 55.1346 103.222C54.5945 102.682 53.8771 102.193 52.9825 101.755C51.6377 101.096 50.4563 100.829 49.4383 100.954C48.4202 101.079 47.6291 101.717 47.065 102.869C46.6899 103.635 46.5589 104.347 46.6721 105.004C46.7822 105.652 47.106 106.249 47.6433 106.795C48.1776 107.332 48.895 107.821 49.7954 108.262Z" fill="black"/>
<path d="M68.7721 90.3073L66.655 93.5201L54.2188 92.7635L54.1704 92.8369C54.5598 93.0623 54.9502 93.2923 55.3415 93.5267C55.7328 93.7612 56.1241 93.9956 56.5154 94.2301C56.9012 94.4609 57.2898 94.6936 57.6811 94.928L63.2913 98.6248L61.803 100.884L49.8811 93.0279L51.9821 89.8395L64.3232 90.5451L64.3608 90.488C63.984 90.2553 63.6081 90.0271 63.2331 89.8034C62.8581 89.5797 62.4832 89.356 62.1082 89.1323C61.7368 88.9032 61.3654 88.6741 60.994 88.4449L55.3511 84.7266L56.8502 82.4515L68.7721 90.3073Z" fill="black"/>
<path d="M76.2104 81.7656L72.9498 80.3551L69.581 84.323L71.5017 87.3116L69.3906 89.798L61.7237 76.6782L64.1191 73.8568L78.3215 79.2792L76.2104 81.7656ZM70.5466 79.2627L67.3455 77.9028C67.1346 77.8092 66.8619 77.6929 66.5272 77.5539C66.1918 77.4058 65.8518 77.258 65.5072 77.1107C65.1618 76.9541 64.8664 76.8143 64.6207 76.6911C64.7821 76.9135 64.9762 77.1979 65.2031 77.5443C65.4292 77.8814 65.6426 78.2035 65.8432 78.5105C66.0438 78.8174 66.1864 79.0367 66.271 79.1684L68.1385 82.099L70.5466 79.2627Z" fill="black"/>
<path d="M83.3341 74.8738L81.1406 76.9602L73.0373 68.4406L70.2281 71.1125L68.4917 69.2869L76.3037 61.8567L78.0401 63.6823L75.2309 66.3542L83.3341 74.8738Z" fill="black"/>
<path d="M94.5508 65.798L88.0538 70.8379L79.3028 59.5568L85.7998 54.5169L87.3201 56.4768L83.2151 59.6612L85.1365 62.1381L88.956 59.1752L90.4764 61.1351L86.6569 64.098L88.9135 67.007L93.0185 63.8226L94.5508 65.798Z" fill="black"/>
<path d="M109.666 56.8992L107.01 58.3302L103.092 51.0566C102.984 50.856 102.854 50.608 102.702 50.3126C102.547 50.0114 102.392 49.703 102.237 49.3873C102.079 49.0659 101.937 48.776 101.813 48.5176C101.79 48.6261 101.73 48.8245 101.634 49.1129C101.541 49.3925 101.45 49.6487 101.361 49.8815L100.541 51.8202L98.399 50.9111L100.712 45.5057L102.896 44.3294L109.666 56.8992Z" fill="black"/>
<path d="M119.928 44.6935C120.37 45.7578 120.68 46.7427 120.858 47.6484C121.043 48.5516 121.073 49.371 120.948 50.1065C120.83 50.8395 120.539 51.4817 120.077 52.0329C119.615 52.5842 118.964 53.0346 118.122 53.3841C117.064 53.8234 116.084 53.9165 115.182 53.6634C114.278 53.4044 113.454 52.8371 112.71 51.9618C111.963 51.0804 111.297 49.9332 110.71 48.5202C110.118 47.0951 109.76 45.8163 109.635 44.6839C109.514 43.5429 109.678 42.562 110.127 41.7413C110.576 40.9206 111.362 40.2768 112.487 39.81C113.539 39.3732 114.517 39.2843 115.421 39.5434C116.329 39.794 117.159 40.3587 117.911 41.2376C118.662 42.1105 119.334 43.2624 119.928 44.6935ZM113.479 47.3707C113.896 48.3748 114.298 49.1911 114.686 49.8196C115.077 50.4396 115.475 50.8631 115.879 51.09C116.284 51.3169 116.72 51.333 117.189 51.1383C117.652 50.946 117.948 50.6297 118.075 50.1891C118.206 49.7401 118.19 49.1581 118.027 48.4433C117.861 47.7224 117.569 46.8569 117.15 45.8467C116.733 44.8426 116.328 44.0275 115.934 43.4015C115.54 42.7755 115.138 42.3503 114.727 42.1259C114.321 41.893 113.886 41.8726 113.423 42.0648C112.954 42.2595 112.658 42.5832 112.536 43.0357C112.411 43.4823 112.431 44.066 112.597 44.7869C112.768 45.5053 113.062 46.3665 113.479 47.3707Z" fill="black"/>
<path d="M123.428 35.9422C124.506 35.6412 125.43 35.789 126.198 36.3857C126.966 36.9824 127.54 37.9611 127.92 39.3219C128.299 40.6826 128.333 41.819 128.019 42.7311C127.706 43.6432 126.979 44.2585 125.838 44.577C124.778 44.8728 123.865 44.7152 123.1 44.1042C122.335 43.4932 121.762 42.5073 121.382 41.1465C121.002 39.7858 120.965 38.6574 121.269 37.7614C121.579 36.8637 122.299 36.2572 123.428 35.9422ZM123.995 37.9028C123.688 37.9886 123.516 38.246 123.481 38.675C123.445 39.1041 123.537 39.7136 123.758 40.5038C123.978 41.2939 124.216 41.8663 124.47 42.2211C124.725 42.5759 125.006 42.7104 125.313 42.6247C125.62 42.5389 125.792 42.2815 125.828 41.8525C125.868 41.4154 125.777 40.7987 125.554 40.0023C125.334 39.2122 125.094 38.6438 124.835 38.297C124.582 37.9484 124.302 37.8171 123.995 37.9028ZM133.246 33.4146L129.456 49.2955L127.199 49.9256L130.989 34.0447L133.246 33.4146ZM134.593 38.747C135.671 38.4459 136.595 38.5937 137.363 39.1905C138.131 39.7872 138.705 40.7659 139.085 42.1267C139.463 43.4811 139.495 44.6144 139.182 45.5264C138.869 46.4385 138.141 47.0538 137 47.3723C135.94 47.6681 135.028 47.5105 134.262 46.8995C133.497 46.2885 132.925 45.3058 132.547 43.9513C132.168 42.5906 132.13 41.4622 132.434 40.5662C132.744 39.6684 133.464 39.062 134.593 38.747ZM135.16 40.7076C134.853 40.7933 134.681 41.0507 134.646 41.4798C134.61 41.9088 134.702 42.5184 134.923 43.3085C135.143 44.0986 135.381 44.6711 135.636 45.0259C135.89 45.3807 136.171 45.5152 136.478 45.4294C136.785 45.3437 136.957 45.0863 136.993 44.6572C137.033 44.2202 136.942 43.6034 136.72 42.8071C136.499 42.017 136.259 41.4485 136 41.1017C135.747 40.7532 135.467 40.6218 135.16 40.7076Z" fill="black"/>
<path d="M200.876 43.7521C200.602 44.8177 200.22 45.7548 199.73 46.5632C199.242 47.3654 198.645 48.0121 197.941 48.5033C197.243 48.9962 196.437 49.3067 195.524 49.435C194.612 49.557 193.592 49.473 192.463 49.183C191.334 48.893 190.4 48.4748 189.66 47.9284C188.921 47.3757 188.362 46.7143 187.981 45.9445C187.607 45.1762 187.401 44.3198 187.361 43.3753C187.321 42.4308 187.439 41.4225 187.715 40.3506C188.082 38.9192 188.636 37.7338 189.374 36.7943C190.121 35.8501 191.058 35.2104 192.186 34.8751C193.315 34.5398 194.632 34.5657 196.139 34.9529C197.64 35.3385 198.797 35.9484 199.611 36.7827C200.432 37.6186 200.938 38.6293 201.131 39.8148C201.33 41.002 201.245 42.3144 200.876 43.7521ZM190.784 41.1592C190.536 42.124 190.442 42.9871 190.502 43.7486C190.569 44.5054 190.813 45.1394 191.233 45.6506C191.654 46.1555 192.275 46.5132 193.095 46.7238C193.927 46.9376 194.65 46.925 195.262 46.6858C195.877 46.4403 196.389 46.0007 196.801 45.367C197.22 44.7287 197.554 43.9271 197.802 42.9623C198.174 41.512 198.197 40.3011 197.868 39.3294C197.54 38.3577 196.754 37.7123 195.512 37.3932C194.686 37.1809 193.963 37.1968 193.342 37.4406C192.73 37.6798 192.21 38.1178 191.785 38.7545C191.367 39.3866 191.033 40.1882 190.784 41.1592Z" fill="black"/>
<path d="M203.325 52.5766L200.538 51.5247L205.581 38.1674L213.237 41.0575L212.361 43.3781L207.491 41.5399L206.191 44.9843L210.723 46.6949L209.85 49.0064L205.318 47.2958L203.325 52.5766Z" fill="black"/>
<path d="M232.23 59.4973C231.669 60.4435 231.04 61.236 230.343 61.8748C229.649 62.5079 228.895 62.9616 228.082 63.2358C227.273 63.5133 226.413 63.5856 225.5 63.4528C224.591 63.3144 223.635 62.9478 222.632 62.3531C221.63 61.7585 220.85 61.0952 220.293 60.3633C219.739 59.6257 219.387 58.8341 219.238 57.9885C219.094 57.1463 219.136 56.2662 219.362 55.3484C219.589 54.4306 219.985 53.4958 220.549 52.544C221.303 51.273 222.167 50.2901 223.139 49.5953C224.121 48.8982 225.2 48.5468 226.376 48.541C227.553 48.5352 228.811 48.9293 230.149 49.7233C231.481 50.5139 232.422 51.4238 232.969 52.4528C233.523 53.4851 233.726 54.5973 233.579 55.7893C233.437 56.9847 232.988 58.2207 232.23 59.4973ZM223.269 54.1803C222.761 55.0369 222.428 55.8391 222.273 56.5869C222.125 57.3323 222.182 58.0092 222.442 58.6176C222.705 59.2203 223.2 59.7377 223.928 60.1695C224.667 60.608 225.364 60.7983 226.019 60.7404C226.678 60.6769 227.293 60.3986 227.866 59.9056C228.447 59.4104 228.992 58.7344 229.501 57.8778C230.265 56.59 230.625 55.4337 230.582 54.409C230.539 53.3842 229.966 52.5446 228.863 51.8901C228.13 51.4549 227.431 51.2674 226.767 51.3276C226.112 51.3856 225.491 51.6605 224.904 52.1524C224.325 52.6421 223.781 53.318 223.269 54.1803Z" fill="black"/>
<path d="M247.606 62.6046L241.943 69.9041C241.341 70.6808 240.624 71.2493 239.792 71.6095C238.97 71.9686 238.07 72.0614 237.092 71.8879C236.119 71.7185 235.108 71.2267 234.059 70.4126C232.567 69.2554 231.725 67.9929 231.534 66.625C231.343 65.2571 231.734 63.9456 232.708 62.6904L238.346 55.4218L240.73 57.2713L235.373 64.1773C234.651 65.1084 234.335 65.9094 234.424 66.5802C234.513 67.251 234.931 67.8757 235.677 68.4543C236.202 68.8613 236.696 69.1005 237.159 69.1719C237.628 69.2472 238.086 69.157 238.531 68.9012C238.977 68.6454 239.425 68.2268 239.876 67.6455L245.221 60.755L247.606 62.6046Z" fill="black"/>
<path d="M253.86 68.7386C254.783 69.648 255.434 70.5088 255.812 71.3209C256.196 72.1375 256.312 72.9147 256.161 73.6524C256.01 74.3901 255.596 75.1021 254.92 75.7883C254.463 76.252 253.975 76.571 253.456 76.7451C252.937 76.9192 252.415 76.9852 251.89 76.9429C251.365 76.9007 250.86 76.7916 250.375 76.6156L248.999 83.9938L246.607 81.6358L248.025 75.3414L246.877 74.2104L243.032 78.1124L240.875 75.9874L250.897 65.8185L253.86 68.7386ZM251.966 70.3545L251.312 69.7102L248.605 72.4576L249.3 73.1431C250.014 73.8468 250.641 74.2313 251.18 74.2964C251.728 74.3615 252.231 74.1621 252.688 73.6984C253.163 73.2162 253.334 72.7085 253.202 72.1755C253.073 71.647 252.662 71.04 251.966 70.3545Z" fill="black"/>
<path d="M268.971 86.8113C270.039 88.3128 270.494 89.6386 270.337 90.7886C270.186 91.9349 269.545 92.9098 268.415 93.7135C267.906 94.0756 267.363 94.3458 266.786 94.524C266.215 94.6983 265.625 94.7387 265.015 94.6451C264.409 94.5568 263.794 94.2989 263.171 93.8715C262.553 93.4403 261.942 92.8003 261.338 91.9514L260.586 90.8929L256.447 93.8357L254.693 91.3685L266.328 83.0946L268.971 86.8113ZM266.859 88.1214L266.061 86.9992L262.607 89.4554L263.184 90.2672C263.513 90.7288 263.858 91.086 264.222 91.3388C264.585 91.5915 264.963 91.7184 265.355 91.7192C265.747 91.72 266.147 91.5752 266.556 91.2847C267.129 90.8772 267.44 90.4162 267.49 89.9017C267.545 89.3833 267.334 88.7899 266.859 88.1214Z" fill="black"/>
<path d="M276.09 98.3301C276.721 99.4616 277.104 100.47 277.24 101.356C277.38 102.247 277.273 103.026 276.922 103.692C276.57 104.357 275.973 104.925 275.132 105.394C274.563 105.711 274.005 105.881 273.458 105.902C272.911 105.924 272.392 105.841 271.899 105.654C271.407 105.466 270.953 105.22 270.537 104.915L267.149 111.612L265.513 108.678L268.638 103.033L267.853 101.626L263.068 104.294L261.594 101.65L274.064 94.6966L276.09 98.3301ZM273.819 99.3504L273.372 98.5487L270.003 100.427L270.478 101.28C270.967 102.156 271.46 102.701 271.96 102.914C272.468 103.13 273.006 103.08 273.575 102.763C274.166 102.433 274.473 101.994 274.495 101.445C274.52 100.901 274.294 100.203 273.819 99.3504Z" fill="black"/>
<path d="M279.206 122.47C278.188 122.889 277.209 123.144 276.268 123.235C275.333 123.324 274.458 123.234 273.643 122.963C272.831 122.699 272.1 122.24 271.45 121.585C270.806 120.928 270.263 120.06 269.819 118.982C269.376 117.905 269.152 116.906 269.146 115.986C269.147 115.063 269.342 114.219 269.731 113.454C270.122 112.694 270.684 112.016 271.417 111.419C272.15 110.822 273.028 110.312 274.052 109.891C275.418 109.329 276.699 109.062 277.894 109.092C279.097 109.125 280.171 109.493 281.115 110.196C282.059 110.898 282.827 111.969 283.419 113.408C284.008 114.841 284.213 116.133 284.032 117.285C283.853 118.443 283.347 119.453 282.513 120.318C281.681 121.188 280.579 121.905 279.206 122.47ZM275.241 112.834C274.32 113.213 273.572 113.654 272.998 114.158C272.433 114.665 272.071 115.24 271.913 115.882C271.76 116.522 271.845 117.233 272.167 118.016C272.494 118.811 272.937 119.382 273.495 119.73C274.06 120.075 274.719 120.222 275.473 120.173C276.235 120.126 277.077 119.914 277.998 119.535C279.383 118.965 280.366 118.258 280.948 117.413C281.53 116.568 281.577 115.553 281.089 114.367C280.764 113.578 280.318 113.008 279.752 112.657C279.193 112.31 278.532 112.156 277.767 112.196C277.01 112.24 276.169 112.452 275.241 112.834Z" fill="black"/>
<path d="M273.603 129.715L272.777 126.853L286.495 122.896L288.764 130.758L286.38 131.446L284.938 126.445L281.4 127.465L282.743 132.119L280.369 132.804L279.026 128.15L273.603 129.715Z" fill="black"/>
<path d="M275.532 137.614L289.531 134.805L290.126 137.774L276.128 140.582L275.532 137.614Z" fill="black"/>
<path d="M277.552 151.13L277.213 148.121L288.897 146.805L288.463 142.952L290.967 142.67L292.174 153.383L289.67 153.665L289.236 149.813L277.552 151.13Z" fill="black"/>
<path d="M281.983 165.71C281.137 165.72 280.399 165.523 279.769 165.12C279.139 164.717 278.65 164.124 278.303 163.34C277.955 162.563 277.775 161.614 277.762 160.495C277.756 160 277.783 159.515 277.843 159.039C277.902 158.569 277.991 158.116 278.11 157.678C278.235 157.247 278.39 156.835 278.574 156.442L281.386 156.409C281.095 157.09 280.833 157.796 280.6 158.528C280.368 159.26 280.256 159.984 280.264 160.7C280.27 161.195 280.34 161.591 280.474 161.889C280.607 162.194 280.789 162.413 281.018 162.547C281.248 162.681 281.509 162.746 281.802 162.743C282.16 162.739 282.465 162.615 282.716 162.371C282.967 162.127 283.2 161.792 283.417 161.367C283.633 160.947 283.865 160.473 284.113 159.942C284.266 159.609 284.45 159.245 284.667 158.852C284.89 158.459 285.163 158.084 285.484 157.729C285.806 157.374 286.196 157.079 286.656 156.846C287.122 156.619 287.68 156.502 288.331 156.495C289.184 156.485 289.915 156.672 290.525 157.055C291.135 157.439 291.604 157.99 291.931 158.709C292.265 159.434 292.438 160.292 292.45 161.281C292.458 162.023 292.379 162.731 292.211 163.403C292.049 164.082 291.81 164.791 291.493 165.531L289.128 164.582C289.388 163.921 289.586 163.33 289.723 162.807C289.867 162.285 289.935 161.753 289.929 161.213C289.925 160.835 289.859 160.514 289.732 160.248C289.612 159.983 289.441 159.783 289.218 159.649C289.001 159.514 288.75 159.449 288.463 159.452C288.125 159.456 287.839 159.557 287.607 159.755C287.382 159.96 287.164 160.262 286.954 160.661C286.744 161.067 286.499 161.572 286.219 162.174C285.883 162.907 285.529 163.533 285.157 164.052C284.792 164.577 284.357 164.982 283.853 165.268C283.355 165.554 282.732 165.701 281.983 165.71Z" fill="black"/>
<path d="M39.3995 188.735L35.5483 194.665L41.4786 198.516L45.3298 192.586L39.3995 188.735Z" fill="#222222"/>
<path d="M282.413 187.872L276.482 191.723L280.334 197.653L286.264 193.802L282.413 187.872Z" fill="#222222"/>
<path d="M162 182L134 210L162 238L190 210L162 182Z" fill="#E86F2B"/>
<path d="M134 154L106 182L134 210L162 182L134 154Z" fill="#DA5820"/>
<path d="M190 154L162 182L190 210L218 182L190 154Z" fill="#E15240"/>
<path d="M162 126L134 154L162 182L190 154L162 126Z" fill="#CC3E3B"/>
<path d="M218 126L190 154L218 182L246 154L218 126Z" fill="#DA3552"/>
<path d="M106 126L78 154L106 182L134 154L106 126Z" fill="#CC4115"/>
<path d="M190 98L162 126L190 154L218 126L190 98Z" fill="#C12352"/>
<path d="M134 98L106 126L134 154L162 126L134 98Z" fill="#BA2934"/>
<path d="M162 40.5L135.5 67L162 93.5L188.5 67L162 40.5Z" fill="#AC1253"/>
<path d="M124.321 67.1348C86.8155 81.8016 60.25 118.298 60.25 161C60.25 216.643 105.357 261.75 161 261.75C216.643 261.75 261.75 216.643 261.75 161C261.75 118.843 235.857 82.7329 199.107 67.7062L197.955 68.8583C234.468 83.5159 260.25 119.247 260.25 161C260.25 215.814 215.814 260.25 161 260.25C106.186 260.25 61.75 215.814 61.75 161C61.75 118.702 88.2101 82.5834 125.481 68.2947L124.321 67.1348Z" fill="#222222"/>
<path d="M128.982 71.7961C92.4088 84.9251 66.25 119.908 66.25 161C66.25 213.329 108.671 255.75 161 255.75C213.329 255.75 255.75 213.329 255.75 161C255.75 120.457 230.286 85.8618 194.479 72.3345L193.313 73.5006C228.887 86.6426 254.25 120.859 254.25 161C254.25 212.501 212.501 254.25 161 254.25C109.499 254.25 67.75 212.501 67.75 161C67.75 120.308 93.8137 85.7043 130.158 72.9713L128.982 71.7961Z" fill="#222222"/>
</svg>
