<svg xmlns="http://www.w3.org/2000/svg" width="674.952" height="91.3" viewBox="0 0 674.952 91.3">
  <g id="Raggruppa_31" data-name="Raggruppa 31" transform="translate(-470.901 -331.126)">
    <g id="logo" transform="translate(470.901 331.126)">
      <g id="Raggruppa_1" data-name="Raggruppa 1" transform="translate(45.645 0.025)">
        <path id="Tracciato_1" data-name="Tracciato 1" d="M144.178,89.124a8.623,8.623,0,0,1-7.492-4.287,16.856,16.856,0,0,1-2.53-7.438,36.679,36.679,0,0,1-.18-3.7q-.016-10.334-.007-20.664V44.032H134V40.242c0-6.835,0-13.9.014-20.852a17.882,17.882,0,0,1,.419-4.23,9.7,9.7,0,0,1,7.672-7.42,9.014,9.014,0,0,1,1.9-.184q10.079-.005,20.159-.007h11.563a9.88,9.88,0,0,1,9.4,6.857,13.218,13.218,0,0,1,.588,4.222Q185.7,30.755,185.7,42.88v13.28q-.011,3.686-.011,7.369,0,4.509-.007,9.015a18.015,18.015,0,0,1-1.851,8.43,14.967,14.967,0,0,1-1.7,2.627,9.4,9.4,0,0,1-6.846,3.566q-2.755.162-5.507.339l-11.5.722-4.136.256q-3.632.227-7.268.455c-.541.032-1.083.079-1.624.126l-.213.018c-.292.025-.585.036-.866.036ZM158.762,29.1c-.079,6.413-.036,24.284.069,30.9l2.162-.061v-12.9q0-8.981,0-17.961h-.559c-.61,0-1.176.007-1.674.018Z" transform="translate(-131.266 -4.851)" fill="#a50000"/>
        <path id="Tracciato_2" data-name="Tracciato 2" d="M159.616,5.483h11.325a7.157,7.157,0,0,1,6.824,4.987,10.615,10.615,0,0,1,.455,3.381Q178.2,32.62,178.2,51.388c0,5.46-.014,10.924-.014,16.384a15.4,15.4,0,0,1-1.552,7.189,12.245,12.245,0,0,1-1.386,2.154,6.638,6.638,0,0,1-4.912,2.573q-3.421.206-6.846.422-5.083.319-10.17.635-5.7.357-11.4.711c-.635.04-1.267.1-1.9.152-.216.018-.429.029-.635.029a5.937,5.937,0,0,1-5.211-3.039,14.138,14.138,0,0,1-2.115-6.258c-.115-1.133-.162-2.281-.166-3.421q-.022-13.479-.007-26.958h.029c0-9.112-.011-18.228.014-27.34a14.853,14.853,0,0,1,.339-3.584,6.961,6.961,0,0,1,5.626-5.428,6.227,6.227,0,0,1,1.321-.119q10.2-.005,20.4-.007M151.431,58l7.477-.209V46.963q0-12.05,0-24.1c0-.393-.047-.79-.072-1.162-.66-.076-1.905-.108-3.194-.108a30.131,30.131,0,0,0-4.305.195c-.2,1.288-.134,35.478.094,36.215M159.616.07q-10.2,0-20.4.007a11.372,11.372,0,0,0-2.483.245,12.3,12.3,0,0,0-9.715,9.408,20.214,20.214,0,0,0-.5,4.876c-.022,6.958-.018,14.028-.014,20.866v1.079h-.025V48.309c0,6.759,0,13.746.007,20.624a37.871,37.871,0,0,0,.195,3.97,19.513,19.513,0,0,0,2.941,8.618,11.353,11.353,0,0,0,9.773,5.532c.361,0,.729-.014,1.1-.047l.224-.018c.545-.047,1.057-.09,1.555-.123q3.6-.227,7.2-.447l4.2-.26,5.164-.325,5.005-.314,1.31-.083q2.761-.173,5.518-.339a12.031,12.031,0,0,0,8.784-4.554,17.859,17.859,0,0,0,2-3.1,20.645,20.645,0,0,0,2.151-9.668q0-4.52.007-9.04c0-2.447.007-4.9.007-7.344l.007-13.436q0-12.05.011-24.1a15.974,15.974,0,0,0-.722-5.063A12.6,12.6,0,0,0,170.941.07Z" transform="translate(-126.48 -0.07)" fill="#ffcf0b"/>
      </g>
      <g id="Raggruppa_2" data-name="Raggruppa 2" transform="translate(98.984 0.004)">
        <path id="Tracciato_3" data-name="Tracciato 3" d="M291.93,85.98a8.651,8.651,0,0,1-6.752-3.208,14.14,14.14,0,0,1-3.158-7.463,24.43,24.43,0,0,1-.217-3.194q-.016-10.307-.007-20.614V42.83h.032V18.488a11.276,11.276,0,0,1,1.83-6.6,9.5,9.5,0,0,1,8.084-4.345q3.264,0,6.528,0h11.379c3.8,0,8.806,0,13.8-.025h.043a10.046,10.046,0,0,1,9.538,7.12,13.245,13.245,0,0,1,.5,3.879v9.751q0,5.938,0,11.873,0,5.278-.007,10.559-.011,10.15-.011,20.3a16.438,16.438,0,0,1-1.371,6.85,11.536,11.536,0,0,1-4.6,5.359,9.163,9.163,0,0,1-4.327,1.314q-2.9.135-5.8.263-5,.227-9.993.458c-2.559.119-5.117.249-7.676.375q-3.676.184-7.348.357c-.155.007-.307.011-.458.011ZM306.6,29.069q-.011,14.9-.014,29.805l2.219-.054q.011-14.876.018-29.748H306.6Z" transform="translate(-279.082 -4.803)" fill="#a50000"/>
        <path id="Tracciato_4" data-name="Tracciato 4" d="M318.683,5.423a7.341,7.341,0,0,1,6.943,5.189,10.509,10.509,0,0,1,.386,3.1q0,10.81,0,21.62Q326,50.765,325.991,66.2a13.87,13.87,0,0,1-1.137,5.745,8.827,8.827,0,0,1-3.519,4.139,6.489,6.489,0,0,1-3.064.935c-5.262.242-10.527.473-15.789.722-5.009.238-10.018.5-15.027.733-.112,0-.224.007-.332.007a5.946,5.946,0,0,1-4.691-2.252,11.38,11.38,0,0,1-2.537-6.063,22.107,22.107,0,0,1-.195-2.847q-.022-13.29-.007-26.575h.029q0-13.528,0-27.052a8.653,8.653,0,0,1,1.353-5.07,6.824,6.824,0,0,1,5.861-3.172q3.248,0,6.5,0h11.4q6.913,0,13.818-.029h.029M299.34,56.835l7.239-.18a2.189,2.189,0,0,0,.126-.422q.016-16.943.018-33.891a4.266,4.266,0,0,0-.061-.563c0-.025-.036-.051-.058-.072s-.043-.047-.13-.141c-1.328,0-2.674,0-4.024,0-1.086,0-2.172,0-3.255.011a2.3,2.3,0,0,0-.108.408q-.011,17.09-.014,34.179a2.983,2.983,0,0,0,.061.469c0,.025.032.051.051.076s.047.043.155.141M318.683.01h-.054c-4.995.025-9.993.029-13.793.029h-11.4q-3.253,0-6.507,0a12.265,12.265,0,0,0-10.31,5.518,13.862,13.862,0,0,0-2.306,8.142q.005,10,0,20v1.631h-.033V46.715c0,6.756,0,13.742.007,20.614a27.194,27.194,0,0,0,.242,3.54,16.793,16.793,0,0,0,3.778,8.863,11.3,11.3,0,0,0,8.816,4.161c.195,0,.39,0,.588-.014q3.681-.173,7.358-.361,3.832-.189,7.669-.375,4.937-.233,9.874-.451,2.956-.135,5.908-.267a11.839,11.839,0,0,0,5.594-1.7,14.191,14.191,0,0,0,5.684-6.575,19.1,19.1,0,0,0,1.61-7.957c0-6.788,0-13.7.011-20.372q0-5.24.007-10.484V13.72a15.943,15.943,0,0,0-.613-4.659A12.769,12.769,0,0,0,318.683.01Z" transform="translate(-274.28 -0.01)" fill="#ffcf0b"/>
      </g>
      <g id="Raggruppa_3" data-name="Raggruppa 3" transform="translate(498.391 0.025)">
        <path id="Tracciato_5" data-name="Tracciato 5" d="M1429.795,84.968c-.455,0-.888-.018-1.306-.036l-.141-.007q-10.123-.411-20.245-.852l-3.735-.159c-.79-.032-1.577-.069-2.367-.108-1.018-.047-2.032-.094-3.05-.134a9.791,9.791,0,0,1-8-4.6,14.441,14.441,0,0,1-2.407-8.048c-.018-2.725-.014-5.493-.011-8.167V48.418q.006-15.043,0-30.083A10.891,10.891,0,0,1,1390.9,11.2a9.536,9.536,0,0,1,7.554-3.627q7.47-.005,14.944-.007h16.68a9.921,9.921,0,0,1,9.914,8.257,15.731,15.731,0,0,1,.227,2.743q.016,10.458.008,20.92v8.365h-.018v4.713q0,9.722,0,19.448a15.962,15.962,0,0,1-2.248,8.4,9.016,9.016,0,0,1-6.3,4.414,11.237,11.237,0,0,1-1.869.141Zm-14.356-26.427c.108-6.352.119-23.082.022-29.4h-2.129V58.494Z" transform="translate(-1385.825 -4.863)" fill="#a50000"/>
        <path id="Tracciato_6" data-name="Tracciato 6" d="M1408.545,5.483h16.749a7.185,7.185,0,0,1,7.25,6.027,12.912,12.912,0,0,1,.184,2.27q.016,13.29.007,26.575h-.018q0,13.43,0,26.861a13.155,13.155,0,0,1-1.855,7,6.305,6.305,0,0,1-4.435,3.151,8.459,8.459,0,0,1-1.422.1c-.444,0-.891-.022-1.332-.04q-11.99-.493-23.977-1.01c-1.808-.076-3.616-.17-5.424-.242a7.06,7.06,0,0,1-5.854-3.392,11.818,11.818,0,0,1-1.956-6.572c-.025-3.778-.007-7.557-.007-11.335q0-20.668,0-41.339a8.209,8.209,0,0,1,1.747-5.413,6.835,6.835,0,0,1,5.467-2.642q7.438-.005,14.876-.007m4.7,51.032c.245-.985.256-34.01.025-34.868h-7.445V56.342c2.523.054,4.984.108,7.416.162M1408.545.07q-7.438,0-14.879.007a12.155,12.155,0,0,0-9.643,4.616,13.548,13.548,0,0,0-2.981,8.852V54.884c0,1.061,0,2.126-.007,3.187,0,2.681-.007,5.449.011,8.188a17.109,17.109,0,0,0,2.862,9.527,12.4,12.4,0,0,0,10.144,5.807c1.01.04,2.025.087,3.035.134l2.375.108,3.555.152c6.694.285,13.62.581,20.433.859l.141.007c.422.018.9.036,1.411.036a13.93,13.93,0,0,0,2.317-.177,11.634,11.634,0,0,0,8.163-5.673,18.634,18.634,0,0,0,2.645-9.809c.007-6.5.007-13.1.007-19.488V45.776h.018V34.787c0-6.886,0-14.006-.007-21.007a18.264,18.264,0,0,0-.267-3.215A12.592,12.592,0,0,0,1425.3.077h-16.748Z" transform="translate(-1381.032 -0.07)" fill="#ffcf0b"/>
      </g>
      <g id="Raggruppa_4" data-name="Raggruppa 4" transform="translate(152.394 0)">
        <path id="Tracciato_7" data-name="Tracciato 7" d="M434.219,83.762c-.285,0-.57,0-.863,0s-.574,0-.87,0H429.78V7.525H433.7q4.975,0,9.953,0t9.949,0c7.048,0,12.487-.011,17.626-.032h.04a9.958,9.958,0,0,1,9.675,7.6,14.068,14.068,0,0,1,.386,3.277c.011,12.44.007,25.089,0,37.319v5.37c0,1.53-.007,3.06-.011,4.59,0,1.361-.007,2.721-.007,4.078a14.839,14.839,0,0,1-1.317,6.424,12.481,12.481,0,0,1-1.137,1.985,9.951,9.951,0,0,1-8.073,4.388c-3.179.09-6.417.206-9.549.314l-10.949.379q-7.5.26-15,.516c-.354.011-.711.014-1.068.014ZM456.648,57.9c.094-6.261.09-22.746-.007-28.9H456.2c-.675,0-1.3.011-1.837.025V57.9h2.288Z" transform="translate(-427.073 -4.793)" fill="#a50000"/>
        <path id="Tracciato_8" data-name="Tracciato 8" d="M466.47,5.413a7.281,7.281,0,0,1,7.048,5.54,11.2,11.2,0,0,1,.307,2.638q.022,21.344,0,42.685c0,2.891-.011,5.781-.014,8.668a12.248,12.248,0,0,1-1.061,5.28,10.161,10.161,0,0,1-.9,1.566,7.213,7.213,0,0,1-5.944,3.248c-4.1.119-8.188.267-12.281.408q-11.617.4-23.23.8c-.321.011-.646.014-.971.014-.563,0-1.137-.011-1.74-.011V5.439H428.9q9.955,0,19.91.007,8.813,0,17.629-.032h.029m-19.455,50.4h7.452c.227-1.18.195-33.468,0-34.186A24.731,24.731,0,0,0,451.4,21.5a28.122,28.122,0,0,0-4.5.231c-.015.144-.043.3-.047.455V55.421a1.218,1.218,0,0,0,.05.278c.007.029.036.051.058.072a.511.511,0,0,1,.047.047M466.47,0h-.054c-5.135.022-10.567.032-17.6.032q-4.975,0-9.95,0t-9.957,0H422.28V81.664h5.413c.289,0,.57,0,.848,0,.3,0,.6,0,.891,0,.437,0,.8-.007,1.155-.018q7.568-.254,15.132-.52,4.049-.141,8.1-.278l2.717-.094c3.129-.108,6.362-.22,9.535-.314a12.564,12.564,0,0,0,10.206-5.529,15.318,15.318,0,0,0,1.379-2.4,17.519,17.519,0,0,0,1.57-7.571c0-1.364,0-2.732.007-4.1,0-1.527.007-3.049.007-4.576v-5.5c.007-12.191.014-24.793,0-37.193a16.434,16.434,0,0,0-.462-3.919A12.675,12.675,0,0,0,466.47,0Z" transform="translate(-422.28 0)" fill="#ffcf0b"/>
      </g>
      <g id="Raggruppa_5" data-name="Raggruppa 5" transform="translate(446.066 0.025)">
        <path id="Tracciato_9" data-name="Tracciato 9" d="M1272.1,81.439l-4.233-18.921v2.988l.007,7.2v7.921l-2.1.484a18.94,18.94,0,0,1-3.933.148c-.148,0-14.966-.054-16.413-.509l-1.894-.6V7.57h41.494a9.952,9.952,0,0,1,9.856,8.069,14.189,14.189,0,0,1,.256,2.7v1.119c.015,7.943.029,16.157,0,24.237a10.727,10.727,0,0,1-4.6,9.231l1.4,4.024q1.943,5.581,3.876,11.166a6.155,6.155,0,0,1,.354,1.978c.018,2.577.018,5.189.018,7.719v.592a6.065,6.065,0,0,1-.061.794c-.011.079-.022.17-.032.274l-.253,2.486-23.746-.52Zm-2.083-45.93V28.887h-2.158c-.032,1.949-.018,4.7.029,6.622Z" transform="translate(-1240.833 -4.863)" fill="#a50000"/>
        <path id="Tracciato_10" data-name="Tracciato 10" d="M1280.241,5.483a7.292,7.292,0,0,1,7.2,5.893,11.549,11.549,0,0,1,.2,2.173c.014,8.448.033,16.9,0,25.345a8.1,8.1,0,0,1-4.789,7.809c-.108.054-.209.13-.383.242q.563,1.624,1.122,3.23,2.442,7.016,4.876,14.031a3.559,3.559,0,0,1,.205,1.112c.022,2.764.018,5.525.018,8.289,0,.217-.04.437-.079.794-6.427-.141-12.765-.281-19.13-.419-1.747-7.81-3.479-15.543-5.226-23.356h-3.869c-.051,1.916-.015,3.84-.022,5.763s0,3.876,0,5.81q0,2.858.007,5.716v5.767c-.242.054-1.53.079-3.327.079-5.294,0-15.02-.2-15.6-.383V5.483h38.788m-19.679,27.936h7.376V21.384H1260.5a100.519,100.519,0,0,0,.061,12.035M1280.241.07v0h-44.2V77.353l3.789,1.191c.761.238,1.148.361,7.528.509,3.288.076,7.092.126,9.693.126a20.239,20.239,0,0,0,4.543-.217l3.288-.758.245,1.1,4.237.094,7.42.162,11.707.256,5,.108.505-4.977c.007-.083.018-.155.025-.217a8.971,8.971,0,0,0,.079-1.122V73c0-2.526,0-5.135-.018-7.716a8.918,8.918,0,0,0-.5-2.84c-1.288-3.732-2.609-7.521-3.883-11.184l-.776-2.23a13.6,13.6,0,0,0,4.128-10.116c.029-8.087.014-16.3,0-24.251V13.542a16.74,16.74,0,0,0-.31-3.23A12.7,12.7,0,0,0,1280.234.07h0Z" transform="translate(-1236.04 -0.07)" fill="#ffcf0b"/>
      </g>
      <g id="Raggruppa_6" data-name="Raggruppa 6" transform="translate(322.618 0)">
        <path id="Tracciato_11" data-name="Tracciato 11" d="M902.385,80.482l-.585-1.916c-.152-.5-.3-.967-.328-34.389-.036-33.346.144-34.172.22-34.522l.462-2.136h3.277q5.007,0,10.018,0t10.014,0c7.03,0,12.454-.011,17.586-.036h.043a9.983,9.983,0,0,1,9.693,7.564,14.14,14.14,0,0,1,.393,3.374v1.53c.025,7.687.051,15.633,0,23.457a10.761,10.761,0,0,1-4.46,9.145q.373,1.045.743,2.09l.581,1.656c1.22,3.464,2.476,7.048,3.7,10.585a8.139,8.139,0,0,1,.429,2.515c.025,1.79.022,3.6.018,5.352v5.027l-2.147.455c-.036.007-.069.018-.1.025a4.2,4.2,0,0,1-1.112.166h-5.6q-6.063,0-12.126-.007a3.86,3.86,0,0,1-.639-.054l-.119-.014-1.754-.2-.523-1.685-.051-.155c-.061-.191-.141-.429-.206-.707-1.057-4.533-3.584-15.4-3.584-15.4V80.482H902.4ZM928.375,35.74V28.984c-.256,0-.534,0-.83,0-.469,0-.9,0-1.292.011V35.74Z" transform="translate(-898.76 -4.787)" fill="#a50000"/>
        <path id="Tracciato_12" data-name="Tracciato 12" d="M938.291,5.413a7.27,7.27,0,0,1,7.066,5.511,11.587,11.587,0,0,1,.314,2.732c.025,8.318.054,16.64,0,24.959a8.111,8.111,0,0,1-4.789,7.817,1.883,1.883,0,0,0-.253.2c.5,1.393.992,2.761,1.476,4.136,1.429,4.071,2.865,8.142,4.273,12.223a5.464,5.464,0,0,1,.285,1.667c.032,2.414.018,4.825.018,7.239V72.8a3.315,3.315,0,0,1-.657.134h-5.576q-6.073,0-12.144-.007c-.126,0-.249-.029-.451-.051-.068-.217-.155-.448-.209-.682q-2.387-10.247-4.771-20.491a3.022,3.022,0,0,0-.2-.729c-.09-.17-.292-.39-.451-.393-.321-.007-.646-.011-.971-.011-.816,0-1.649.014-2.533.025V72.985H899.6c-.231-.754-.318-66.327-.054-67.55h1.09q10.025,0,20.051.011,8.791,0,17.582-.036h.032M918.764,33.652H926.3V21.635a25.9,25.9,0,0,0-3.537-.155,26.859,26.859,0,0,0-4,.188V33.652M938.291,0h-.054C933.113.025,927.7.036,920.68.036q-5.023,0-10.043,0-5,0-10.007,0h-5.46l-.92,4.273c-.155.718-.213.985-.256,12.086-.025,6.063-.032,14.237-.022,23.013.011,8.632.033,16.774.069,22.923.065,11.223.083,11.281.379,12.248l1.169,3.833H924.13V77.9l3.1.364.054.007a6.8,6.8,0,0,0,1.018.079q6.074,0,12.147.007h5.579a6.841,6.841,0,0,0,1.808-.256h.018l4.237-.9V69.986c0-1.761,0-3.584-.018-5.392a10.923,10.923,0,0,0-.577-3.36c-1.227-3.562-2.494-7.167-3.721-10.657l-.563-1.6-.119-.336a13.672,13.672,0,0,0,3.988-9.982c.054-7.8.029-15.724.007-23.382V13.649a17.062,17.062,0,0,0-.48-4.02A12.687,12.687,0,0,0,938.288.007h0Z" transform="translate(-893.966)" fill="#ffcf0b"/>
      </g>
      <g id="Raggruppa_7" data-name="Raggruppa 7" transform="translate(268.364 0.004)">
        <path id="Tracciato_13" data-name="Tracciato 13" d="M761.6,80.791a10.052,10.052,0,0,1-9.34-6.24,13.84,13.84,0,0,1-1.122-5.742q.011-9.376,0-18.748v-9.2h.007V37.651q0-9.565,0-19.127a13.114,13.114,0,0,1,.53-4.02,10.1,10.1,0,0,1,9.5-6.99h.036c5.7.022,10.942.032,16.034.032,5.341,0,10.549-.014,15.471-.036h.047a10.1,10.1,0,0,1,9.776,7.943,12.378,12.378,0,0,1,.292,2.649c.007,15.117.007,31.191,0,50.578a12.868,12.868,0,0,1-1.963,7.081,9.838,9.838,0,0,1-8.524,4.764q-4.975.038-9.95.072-5.121.032-10.242.072-1.207.011-2.411.014c-2.57.014-5.222.029-7.817.1-.1,0-.213,0-.318,0Zm16.431-23.8V28.993c-.249,0-.516,0-.8,0-.495,0-.945,0-1.35.014-.079,5.976-.054,21.862.047,27.983Z" transform="translate(-748.43 -4.803)" fill="#a50000"/>
        <path id="Tracciato_14" data-name="Tracciato 14" d="M787.961,5.423a7.333,7.333,0,0,1,7.131,5.81,9.8,9.8,0,0,1,.231,2.075q.016,25.291,0,50.578a10.158,10.158,0,0,1-1.534,5.619,7.14,7.14,0,0,1-6.269,3.519q-10.1.076-20.191.144c-3.428.025-6.857.022-10.285.119H756.8a7.3,7.3,0,0,1-6.864-4.634,11.28,11.28,0,0,1-.891-4.641q.011-12.618,0-25.24h.007q0-12.526,0-25.049a10.4,10.4,0,0,1,.4-3.2,7.331,7.331,0,0,1,6.922-5.1h.025q8.017.032,16.038.032c5.348,0,10.328-.011,15.489-.036h.033M768.52,54.893h7.423V21.649a24.355,24.355,0,0,0-3.511-.162,25.309,25.309,0,0,0-3.981.195c-.195,1.14-.148,32.483.065,33.219M787.961.01h-.054c-4.93.025-10.134.036-15.467.036S762.111.035,756.423.014h-.047a12.816,12.816,0,0,0-7.12,2.216,12.577,12.577,0,0,0-4.962,6.658,15.685,15.685,0,0,0-.657,4.843q.005,9.56,0,19.123v.509h0l-.007,5.413v6.518q0,9.359,0,18.719a16.525,16.525,0,0,0,1.357,6.842A12.7,12.7,0,0,0,756.8,78.7c.13,0,.263,0,.393-.007,2.559-.072,5.193-.087,7.741-.1.812,0,1.624-.011,2.436-.014q5.126-.038,10.249-.072,4.969-.032,9.939-.072a12.6,12.6,0,0,0,10.783-6.009,15.531,15.531,0,0,0,2.389-8.538c.011-19.34.011-35.413,0-50.581a15.171,15.171,0,0,0-.354-3.223,12.54,12.54,0,0,0-4.93-7.607A12.823,12.823,0,0,0,787.961.01Z" transform="translate(-743.63 -0.01)" fill="#ffcf0b"/>
      </g>
      <g id="Raggruppa_8" data-name="Raggruppa 8" transform="translate(393.352 0.025)">
        <path id="Tracciato_15" data-name="Tracciato 15" d="M1097.47,80.875V7.659l2.649-.054.411-.011c.311-.007.6-.014.891-.014h37.528a9.89,9.89,0,0,1,10.04,8.838,19.028,19.028,0,0,1,.137,2.429V31.871q0,7.394,0,14.789A13.206,13.206,0,0,1,1147.6,53.2a9.581,9.581,0,0,1-8.784,5.244c-4.28-.011-8.6-.061-12.772-.108l-3.923-.043v22.88Zm26.85-45.006V29.125h-2.18c-.029,1.992-.014,4.785.029,6.745h2.147Z" transform="translate(-1094.763 -4.87)" fill="#a50000"/>
        <path id="Tracciato_16" data-name="Tracciato 16" d="M1134.171,5.483a7.224,7.224,0,0,1,7.34,6.474,16.808,16.808,0,0,1,.116,2.09q0,13.907,0,27.813a10.543,10.543,0,0,1-1.184,5.233,6.935,6.935,0,0,1-6.413,3.847H1134c-6.034-.014-12.064-.1-18.094-.166h-1.281V73.636c-6.456-.079-12.815-.155-19.242-.235V5.509c.451-.011.848-.025,1.249-.025h37.543m-19.347,28.293h7.409V21.618h-7.481a115.138,115.138,0,0,0,.072,12.158M1134.171.07h-37.539c-.339,0-.657.007-.963.018-.13,0-.26.007-.4.011l-5.3.112V78.75l5.348.065,13.587.166,5.655.069,5.478.069V56.234c.39,0,.776.007,1.165.014,4.186.047,8.513.1,12.786.108h.036a12.3,12.3,0,0,0,11.151-6.64,15.8,15.8,0,0,0,1.862-7.856V27.032q0-6.49,0-12.981a22.382,22.382,0,0,0-.159-2.768A12.684,12.684,0,0,0,1134.171.074h0Z" transform="translate(-1089.97 -0.07)" fill="#ffcf0b"/>
      </g>
      <g id="Raggruppa_9" data-name="Raggruppa 9" transform="translate(0 0.047)">
        <path id="Tracciato_17" data-name="Tracciato 17" d="M7.824,91.24c-.141-.476-.271-.927-.318-26.749-.011-6-.032-25.691.13-27.059l.281-2.367L16.648,35c-2.382-1.822-4.8-3.667-7.2-5.471a4.569,4.569,0,0,1-1.934-3.916c.029-3.515.025-7.095.022-10.559V7.67H53.768l.274,2.4c.007.051.014.1.018.144a5.508,5.508,0,0,1,.069.812v.267c.007,2.1.011,4.28,0,6.427a6.047,6.047,0,0,1-.328,2c-.715,2.025-1.458,4.071-2.176,6.048l-.444,1.227a4.462,4.462,0,0,1-.285.614l-.061.115L50.08,29.2h-7.9l5.442,4.118c.281.213.556.429.834.65.372.3.725.574,1.075.826a3.835,3.835,0,0,1,1.656,3.234q-.016,5.841-.014,11.682v5.839a5.2,5.2,0,0,1-.083.823c-.011.072-.025.152-.036.249l-.307,2.306-18.553.364v.621q-.011,1.1,0,2.2v1.01l0,9.621v3.252c0,.545-.011,1.09-.014,1.638s-.014,1.068-.014,1.6c0,.7,0,1.407,0,2.111v9.91l-2.274.368c-1.48.238-2.909.328-4.291.415-.772.047-1.5.094-2.227.166-1.573.152-3.158.267-4.691.379-.574.043-1.148.083-1.721.126q-2.133.162-4.262.321l-4.251.318-.617-2.1Z" transform="translate(-4.792 -4.949)" fill="#a50000"/>
        <path id="Tracciato_18" data-name="Tracciato 18" d="M46.56,5.558a6.491,6.491,0,0,1,.072.65q.011,3.335,0,6.669a3.323,3.323,0,0,1-.173,1.115c-.855,2.425-1.736,4.839-2.613,7.254-.043.115-.112.224-.209.415H29.8c-.032.061-.065.123-.1.18.213.195.415.408.642.581q5.424,4.114,10.859,8.221c.657.5,1.292,1.029,1.96,1.512a1.144,1.144,0,0,1,.53,1.032q-.022,8.764-.018,17.528a6.661,6.661,0,0,1-.094.718c-6.29.123-12.5.245-18.838.372-.1,1.112-.032,2.18-.043,3.244s0,2.158,0,3.237V61.43q0,1.619,0,3.237V67.9c0,1.079,0,2.158,0,3.237s-.025,2.158-.032,3.237c-.007,1.047,0,2.1,0,3.143v6.586c-2.133.343-4.251.357-6.344.559-2.115.206-4.237.343-6.355.5s-4.23.318-6.323.473c-.22-.747-.3-50.993-.094-52.725q6.891-.054,13.818-.1c.025-.058.051-.115.076-.17-.191-.177-.368-.368-.574-.527C14.683,28.91,10.508,25.7,6.3,22.53A1.885,1.885,0,0,1,5.441,20.8c.036-4.7.018-9.4.018-14.1V5.54H46.574m4.811-5.4L46.56.148H.031V10.256c0,3.45.007,7.023-.022,10.52a7.3,7.3,0,0,0,3.013,6.1c.292.22.585.44.877.664l-3.187.025L.15,32.3C.028,33.378-.023,42.591.006,59.676c.011,6.745.036,13.035.072,17.712.065,8.8.09,8.9.354,9.794l1.231,4.2,4.367-.328,1.905-.141q2.209-.162,4.424-.332c.567-.043,1.137-.087,1.7-.126,1.552-.112,3.154-.231,4.76-.386.678-.065,1.386-.108,2.133-.159a45.693,45.693,0,0,0,4.554-.444l4.551-.733V74.418c0-.527.011-1.05.014-1.577.007-.556.014-1.108.014-1.664,0-.751,0-1.5,0-2.248V63l0-1.57v-4.32l8.354-.162,5.229-.1,4.648-.09.61-4.608c.011-.072.018-.13.029-.18a7.428,7.428,0,0,0,.112-1.245q0-2.929,0-5.857,0-5.83.014-11.664a6.532,6.532,0,0,0-2.779-5.439c-.278-.2-.581-.44-.9-.689h1.523l1.508-2.948.029-.054a6.763,6.763,0,0,0,.451-.982l.447-1.231c.718-1.985,1.465-4.035,2.183-6.07a8.881,8.881,0,0,0,.48-2.883c.014-2.158.011-4.338,0-6.445V6.189A7.936,7.936,0,0,0,51.941,5l-.011-.076L51.378.13h0Z" transform="translate(0.002 -0.13)" fill="#ffcf0b"/>
      </g>
      <g id="Raggruppa_10" data-name="Raggruppa 10" transform="translate(551.838 0.097)">
        <path id="Tracciato_19" data-name="Tracciato 19" d="M1557.883,86.676c-3.14,0-17.192-.632-18.9-.938l-1.635-.292-.48-1.588c-.141-.473-.278-.92-.249-23.519.025-22.559.184-23.169.285-23.573l.52-2.035h8.2c-2.3-1.732-4.623-3.479-6.932-5.189a4.822,4.822,0,0,1-2.068-4.172c.032-3.371.029-6.8.021-10.123V7.78h46.157l.393,2.241.014.069a4.7,4.7,0,0,1,.13,1c.007,2.5,0,4.717,0,6.785a5.149,5.149,0,0,1-.289,1.739q-1.272,3.546-2.57,7.084l-.13.357a4.061,4.061,0,0,1-.324.671l-.058.1-.769,1.418h-7.8q2.366,1.781,4.728,3.562c.509.383,1.007.78,1.509,1.173.4.318.8.635,1.209.946a3.684,3.684,0,0,1,1.516,3.039q-.022,5.689-.029,11.379l-.014,5.861a4.084,4.084,0,0,1-.086.783c-.011.047-.022.1-.032.177l-.379,2.3-18.47-.256c0,.751,0,1.494,0,2.227,0,.751.011,1.5,0,2.241q-.016,2.447-.007,4.89V69.8l-.007,7.048v9.275l-2.129.466a6.113,6.113,0,0,1-1.339.09Z" transform="translate(-1533.918 -5.07)" fill="#a50000"/>
        <path id="Tracciato_20" data-name="Tracciato 20" d="M1575.751,5.68a3.952,3.952,0,0,1,.1.617q.011,3.383,0,6.763a2.544,2.544,0,0,1-.13.841c-.888,2.479-1.794,4.955-2.7,7.427a4.558,4.558,0,0,1-.22.411H1558.97c-.032.061-.065.123-.1.188.242.209.476.433.732.624q5.056,3.811,10.119,7.618c.913.689,1.8,1.415,2.7,2.108a1.025,1.025,0,0,1,.454.881q-.032,8.623-.043,17.243a4.569,4.569,0,0,1-.083.523l-18.806-.26c-.137,2.461-.054,4.829-.072,7.2s0,4.764-.007,7.145q0,3.524-.007,7.048v7.095a5.859,5.859,0,0,1-.761.029c-3.457,0-17.084-.653-18.416-.895-.209-.7-.17-44.713.065-45.641h14.027c-.343-.314-.506-.487-.693-.632-4.179-3.154-8.351-6.326-12.559-9.441a2.143,2.143,0,0,1-.971-1.974c.043-4.572.022-9.145.022-13.717V5.683h41.177M1580.3.27h-51.137V10.432c0,3.317.011,6.749-.022,10.108a7.551,7.551,0,0,0,3.165,6.373c.137.1.278.206.418.31h-2.176l-1.043,4.071c-.206.808-.343,1.342-.372,24.24-.007,5.828,0,11.325.022,15.475.04,7.831.068,7.925.343,8.827l.956,3.179,3.266.588c2.039.368,16.41.982,19.376.982a8.7,8.7,0,0,0,1.916-.152l4.258-.927V62.728c0-1.588,0-3.226.007-4.829,0-.588,0-1.173,0-1.743h.026l13.364.184,4.659.065.754-4.6c.007-.04.014-.072.018-.1a6.541,6.541,0,0,0,.137-1.292q.006-2.923.014-5.846.011-5.695.029-11.389a6.4,6.4,0,0,0-2.58-5.2c-.346-.263-.689-.534-1.054-.823h1.371l1.537-2.833.018-.029a6.743,6.743,0,0,0,.527-1.1l.18-.494c.83-2.277,1.689-4.634,2.526-6.961a7.864,7.864,0,0,0,.444-2.638c.011-2.057.011-4.284,0-6.806a6.9,6.9,0,0,0-.195-1.591V4.694l-.776-4.417h0Z" transform="translate(-1529.133 -0.27)" fill="#ffcf0b"/>
      </g>
      <g id="Raggruppa_11" data-name="Raggruppa 11" transform="translate(222.73 0.09)">
        <path id="Tracciato_21" data-name="Tracciato 21" d="M624.745,34.617l2.526-.17c.119-.007.235-.018.347-.029.289-.025.621-.051.978-.054,1.66,0,3.324-.007,4.984-.007-2.27-1.66-4.572-3.338-6.853-4.98a4.612,4.612,0,0,1-2.046-4.024c.029-3.241.025-6.539.025-9.733V11.564c0-.339.022-.646.04-.942.007-.112.015-.231.022-.35L624.9,7.71h46.117l.274,2.4c.007.061.014.123.025.177a5.668,5.668,0,0,1,.068.816v.065c.007,2.14.014,4.352,0,6.532a5.753,5.753,0,0,1-.325,1.924c-.751,2.09-1.53,4.2-2.281,6.24l-.343.931a4.868,4.868,0,0,1-.289.628c-.025.047-.054.1-.087.166l-.747,1.5h-7.683c2.259,1.653,4.54,3.313,6.8,4.944a4.514,4.514,0,0,1,1.989,3.944c-.029,3.63-.025,7.326-.025,10.9V56.31l-2.523.17c-.133.007-.26.022-.386.029-.325.029-.657.054-1.032.058q-7.026.032-14.053.054h-1v24.72l-24.663.549Z" transform="translate(-621.973 -5.018)" fill="#a50000"/>
        <path id="Tracciato_22" data-name="Tracciato 22" d="M663.812,5.656c.029.267.076.48.076.7.007,2.191.014,4.381,0,6.572a3.08,3.08,0,0,1-.166,1.025c-.859,2.389-1.74,4.771-2.616,7.153-.054.144-.137.278-.256.52H646.9a1.658,1.658,0,0,0,.769.812c4.121,3.021,8.242,6.048,12.389,9.037a1.866,1.866,0,0,1,.866,1.729c-.036,4.857-.022,9.715-.022,14.576v1.252c-.455.032-.848.079-1.245.079q-8.239.038-16.481.061h-1.27V73.942l-19.25.429V32.387c.415-.029.783-.072,1.151-.072q5.906-.011,11.812-.014h1c.018-.069.04-.141.058-.209-.256-.213-.505-.437-.772-.635-4.125-3.017-8.243-6.048-12.389-9.033a1.946,1.946,0,0,1-.92-1.8c.043-4.6.018-9.21.022-13.811,0-.368.036-.74.058-1.148h41.137m0-5.413H617.544l-.274,5.125c-.007.108-.015.213-.018.314-.022.307-.047.693-.047,1.119v4.064c0,3.183.007,6.478-.025,9.7a7.328,7.328,0,0,0,3.172,6.247c.126.09.253.18.379.274l-3.486.231V79.911l5.532-.123,6.388-.141,12.862-.285,5.294-.119V54.577q6.182-.022,12.36-.047c.484,0,.906-.036,1.249-.065.108-.011.224-.018.339-.025l5.049-.343v-9.95c0-3.576,0-7.272.025-10.9a7.248,7.248,0,0,0-3.115-6.16l-.058-.043H664.2l1.494-3c.022-.043.04-.079.058-.112a7.422,7.422,0,0,0,.433-.953l.339-.924c.754-2.05,1.538-4.168,2.292-6.269a8.474,8.474,0,0,0,.487-2.822c.014-2.227.007-4.461,0-6.622a7.971,7.971,0,0,0-.1-1.187c0-.032-.011-.069-.014-.1L668.634.272,663.812.261h0Z" transform="translate(-617.179 -0.25)" fill="#ffcf0b"/>
      </g>
      <g id="Raggruppa_12" data-name="Raggruppa 12" transform="translate(621.042 0.004)">
        <path id="Tracciato_23" data-name="Tracciato 23" d="M1761.865,92.095c-1.527-.043-2.985-.166-4.392-.281-.711-.058-1.415-.115-2.122-.166q-3.242-.222-6.478-.466c-1.444-.108-2.887-.22-4.349-.336l-4.558-.354V29.167h-10.642l-.563-1.956c-.48-1.66-.3-16.467-.2-17.189l.238-1.776,1.725-.476c.347-.094.985-.271,27.113-.271,15.836,0,16.569.1,16.843.137l1.985.271.321,1.978.015.065a4.582,4.582,0,0,1,.115.971V11.6c.007,2.129.015,4.327-.007,6.5a6.516,6.516,0,0,1-.433,2.187c-.65,1.786-1.328,3.591-1.981,5.334l-.354.938a3.45,3.45,0,0,1-3.742,2.613h-5.644v2l-.108,57.756v3.244l-2.786-.079Z" transform="translate(-1725.72 -4.797)" fill="#a50000"/>
        <path id="Tracciato_24" data-name="Tracciato 24" d="M1752.817,5.423c8.5,0,15.9.032,16.478.112a3.662,3.662,0,0,1,.094.61c.007,2.382.018,4.764-.007,7.145a3.874,3.874,0,0,1-.271,1.288c-.761,2.09-1.545,4.165-2.328,6.247-.321.855-.325.855-1.209.855h-8.264c-.033.35-.08.624-.08.895-.007,1.27,0,2.541-.007,3.811q-.054,28.533-.109,57.066V84.6c-2.209-.065-4.309-.3-6.413-.44-2.154-.144-4.305-.3-6.456-.462-2.115-.159-4.226-.325-6.4-.494V21.674h-11.313c-.231-.8-.3-14.7-.115-16.077.39-.108,14.471-.173,26.395-.173m0-5.413c-6.048,0-12.613.018-17.557.047-9.311.054-9.423.087-10.278.321l-3.454.953-.476,3.547c-.159,1.187-.166,5.554-.144,9.008.05,7.986.216,8.564.426,9.293l1.13,3.912h9.971V88.217l4.995.386,1.988.155c1.487.115,2.955.231,4.424.339,1.924.144,4.2.31,6.5.466.678.047,1.357.1,2.075.162,1.447.119,2.945.242,4.547.289l5.568.162V83.461l.029-14.262.079-42.1h2.938a6.073,6.073,0,0,0,6.275-4.367l.375-1c.65-1.732,1.324-3.522,1.97-5.3a9.358,9.358,0,0,0,.6-3.082c.026-2.187.018-4.388.011-6.521v-.7a7.251,7.251,0,0,0-.177-1.519V4.6l-.635-3.89-3.966-.541c-.476-.065-1.191-.162-17.21-.162h0Z" transform="translate(-1720.896 -0.01)" fill="#ffcf0b"/>
      </g>
      <g id="Raggruppa_13" data-name="Raggruppa 13" transform="translate(597.431 0.004)">
        <path id="Tracciato_25" data-name="Tracciato 25" d="M1662.97,88.1V8.412l1.927-.577c.35-.1,1.075-.325,12.757-.325a74.779,74.779,0,0,1,7.5.137l1.718.253.487,1.667c.134.462.285.985.26,38.672-.011,14.017-.058,37.723-.249,39.008l-.372,2.465-24.024-1.62Z" transform="translate(-1660.263 -4.803)" fill="#a50000"/>
        <path id="Tracciato_26" data-name="Tracciato 26" d="M1672.861,5.423c3.529,0,6.593.036,7.1.108.234.8.191,74.789-.068,76.518l-19.015-1.281V5.633c.44-.134,6.727-.209,11.978-.209m0-5.413h0c-12.079,0-12.786.213-13.533.437l-3.854,1.158V85.832l5.049.339,13.2.888,5.818.393,4.976.336.744-4.93c.076-.5.252-1.674.278-39.408.007-9.78,0-18.972-.025-25.883-.043-12.53-.065-12.606-.339-13.548l-.974-3.338-3.439-.505c-.426-.061-1.137-.166-7.889-.166h0Z" transform="translate(-1655.47 -0.01)" fill="#ffcf0b"/>
      </g>
    </g>
  </g>
</svg>
