<?xml version="1.0" encoding="UTF-8"?>
<svg width="74px" height="45px" viewBox="0 0 74 45" version="1.1" xmlns="http://www.w3.org/2000/svg" xmlns:xlink="http://www.w3.org/1999/xlink">
    <!-- Generator: Sketch 56.3 (81716) - https://sketch.com -->
    <title>LOGO/MONGRAM/LABEL/BLACK</title>
    <desc>Created with Sketch.</desc>
    <g id="Symbol" stroke="none" stroke-width="1" fill="none" fill-rule="evenodd">
        <g id="Header/M" transform="translate(-266.000000, 0.000000)" fill="#000000">
            <g id="Group-4" transform="translate(20.000000, 0.000000)">
                <g id="LOGO/EXTENDED/BLACK" transform="translate(246.000000, 0.000000)">
                    <g id="Group-12">
                        <polygon id="Fill-1" points="22.525452 5.61223125 22.525452 36.1001813 19.2267201 39.3877688 24.8580323 44.9999437 30.4892317 39.3877688 30.4892317 5.61223125"></polygon>
                        <polygon id="Fill-2" points="11.2629292 5.61223125 11.2629292 36.1001813 7.96419732 39.3877688 13.5955095 44.9999437 19.2267088 39.3877688 19.2267088 5.61223125"></polygon>
                        <polygon id="Fill-3" points="0 5.61213 0 31.4501175 7.96411831 39.38733 7.96411831 5.61213"></polygon>
                        <polygon id="Fill-4" points="49.6857899 5.61223125 49.6857899 39.3877688 55.3171021 44.9999437 60.9481885 39.3877688 57.6495696 36.1001813 57.6495696 5.61223125"></polygon>
                        <polygon id="Fill-5" points="62.3839265 5.61223125 62.3839265 39.3877688 68.0151258 44.9999437 73.646438 39.3877688 70.3477062 36.1001813 70.3477062 5.61223125"></polygon>
                        <polygon id="Fill-6" points="38.5166313 4.5e-05 32.8854319 5.61222 38.5086167 11.21652 32.8854319 16.8207075 36.1840509 20.108295 36.1840509 39.3877575 41.8153631 45.000045 47.4465624 39.3877575 44.1478306 36.1002825 44.1478306 16.8207075 38.5246458 11.21652 44.1478306 5.61222"></polygon>
                    </g>
                </g>
            </g>
        </g>
    </g>
</svg>